<svg xmlns="http://www.w3.org/2000/svg" viewBox="0 0 512 512" role="img" aria-label="Coach ACS">
  <defs>
    <linearGradient id="bg" x1="90" y1="40" x2="430" y2="486" gradientUnits="userSpaceOnUse">
      <stop stop-color="#0b7a45"/>
      <stop offset="1" stop-color="#063f2f"/>
    </linearGradient>
    <filter id="shadow" x="-20%" y="-20%" width="140%" height="140%">
      <feDropShadow dx="0" dy="18" stdDeviation="18" flood-color="#001b14" flood-opacity=".32"/>
    </filter>
  </defs>
  <rect width="512" height="512" rx="104" fill="url(#bg)"/>
  <path d="M86 380c44 35 99 54 157 54 71 0 136-30 182-78" fill="none" stroke="#d9f06f" stroke-width="18" stroke-linecap="round" opacity=".9"/>
  <circle cx="256" cy="238" r="146" fill="#f8fbf8" filter="url(#shadow)"/>
  <circle cx="256" cy="238" r="128" fill="none" stroke="#0b2f27" stroke-width="10" opacity=".14"/>
  <path d="M256 104v58M256 314v58M122 212l58 20M332 232l58-20M173 333l42-50M297 283l42 50M174 143l40 54M338 143l-40 54" fill="none" stroke="#0b2f27" stroke-width="18" stroke-linecap="round" opacity=".22"/>
  <path d="M256 160l64 46-24 75h-80l-24-75 64-46Z" fill="#0b2f27"/>
  <path d="M142 205l50 1 24 75-39 36c-28-28-43-67-35-112ZM370 205c8 45-7 84-35 112l-39-36 24-75 50-1ZM214 357l42-43 42 43c-27 10-57 10-84 0ZM171 142c30-25 61-36 85-38l-42 56-55 40-18-34c8-9 18-17 30-24ZM341 142c12 7 22 15 30 24l-18 34-55-40-42-56c24 2 55 13 85 38Z" fill="#0b2f27" opacity=".88"/>
  <rect x="142" y="212" width="228" height="82" rx="31" fill="#063f2f"/>
  <text x="256" y="268" text-anchor="middle" font-family="Inter, Arial, sans-serif" font-size="58" font-weight="900" letter-spacing="3" fill="#ffffff">ACS</text>
</svg>
